<svg width="30" height="18" viewBox="0 0 30 18" fill="none" xmlns="http://www.w3.org/2000/svg">
<path d="M29.7103 12.4394L25.5515 9.17092C25.297 8.97143 25.297 8.64387 25.5515 8.44378L29.7105 5.17615C29.9658 4.97626 30.0726 4.63853 29.9479 4.42607C29.823 4.21421 29.4743 4.1388 29.1739 4.2585L24.2285 6.22826C23.9279 6.34915 23.6446 6.18437 23.5995 5.86319L22.8558 0.583706C22.8099 0.262727 22.5686 0 22.3186 0C22.0698 0 21.8287 0.262727 21.784 0.583506L21.0399 5.86339C20.9944 6.18457 20.7115 6.34895 20.4105 6.22846L15.5469 4.29141C15.2453 4.17132 14.754 4.17132 14.4531 4.29141L9.58879 6.22846C9.28796 6.34895 9.00468 6.18457 8.9596 5.86339L8.2165 0.583506C8.17062 0.262727 7.92963 0 7.68067 0C7.43091 0 7.18933 0.262727 7.14444 0.583506L6.40035 5.86339C6.35527 6.18457 6.07219 6.34895 5.77136 6.22846L0.826219 4.2591C0.525589 4.1388 0.17748 4.21461 0.0525997 4.42627C-0.0720811 4.63892 0.0342467 4.97686 0.288795 5.17635L4.44815 8.44398C4.7029 8.64407 4.7029 8.97163 4.44815 9.17132L0.288795 12.4394C0.0334488 12.6392 -0.0722806 12.9971 0.0522008 13.2341C0.177281 13.4715 0.525389 13.5669 0.825621 13.4464L5.72647 11.4782C6.0277 11.3579 6.30779 11.5217 6.34988 11.8429L7.05687 17.1684C7.09956 17.489 7.37964 17.7516 7.67928 17.7516C7.97851 17.7516 8.25879 17.4892 8.30168 17.1684L9.00987 11.8429C9.05176 11.5217 9.33304 11.3581 9.63267 11.4782L14.4531 13.4129C14.7536 13.5338 15.2451 13.5338 15.5457 13.4129L20.3654 11.4782C20.6654 11.3579 20.9459 11.5217 20.9888 11.8429L21.697 17.1684C21.7393 17.489 22.0196 17.7516 22.3184 17.7516C22.618 17.7516 22.8983 17.4892 22.9408 17.1684L23.649 11.8429C23.6921 11.5217 23.9722 11.3581 24.2722 11.4782L29.1737 13.4464C29.4729 13.5669 29.822 13.4713 29.9469 13.2343C30.072 12.9977 29.9656 12.6398 29.7105 12.44L29.7103 12.4394ZM19.1294 9.21242L15.4667 12.0322C15.2104 12.2297 14.7899 12.2297 14.5343 12.0322L10.8705 9.21242C10.6144 9.01492 10.6124 8.68975 10.8665 8.48927L14.5371 5.59807C14.7913 5.39758 15.208 5.39758 15.4624 5.59807L19.133 8.48927C19.3877 8.68956 19.3857 9.01472 19.129 9.21262L19.1294 9.21242Z" fill="black"/>
</svg>
