<svg width="22" height="18" viewBox="0 0 22 18" fill="none" xmlns="http://www.w3.org/2000/svg">
<path d="M19.7477 4.45029C19.7611 4.64423 19.7611 4.83818 19.7611 5.03391C19.7611 10.998 15.2208 17.8764 6.91863 17.8764V17.8728C4.46614 17.8764 2.06459 17.1739 0 15.8494C0.356612 15.8923 0.715011 15.9137 1.0743 15.9146C3.10672 15.9164 5.08105 15.2344 6.67999 13.9787C4.74857 13.9421 3.05489 12.6827 2.46321 10.8443C3.13979 10.9748 3.83693 10.9479 4.501 10.7665C2.39529 10.3411 0.880358 8.49099 0.880358 6.34238C0.880358 6.32272 0.880358 6.30395 0.880358 6.28518C1.50778 6.63464 2.21028 6.82859 2.92886 6.85004C0.945602 5.52459 0.334268 2.8862 1.53191 0.823391C3.82352 3.64322 7.20463 5.35746 10.8342 5.53889C10.4704 3.97123 10.9674 2.32849 12.14 1.22648C13.9579 -0.482398 16.8171 -0.394809 18.5259 1.42221C19.5368 1.2229 20.5056 0.851992 21.3922 0.326458C21.0553 1.37127 20.3501 2.25878 19.4081 2.82274C20.3027 2.71728 21.1768 2.47775 22 2.1122C21.394 3.02026 20.6308 3.81124 19.7477 4.45029Z" fill="black"/>
</svg>
